<?xml version="1.0" encoding="UTF-8" standalone="no"?>
<!-- Generator: Adobe Illustrator 16.0.0, SVG Export Plug-In . SVG Version: 6.00 Build 0)  -->

<svg
   version="1.1"
   id="Capa_1"
   x="0px"
   y="0px"
   width="493.578px"
   height="493.578px"
   viewBox="0 0 493.578 493.578"
   style="enable-background:new 0 0 493.578 493.578;"
   xml:space="preserve"
   sodipodi:docname="down.svg"
   inkscape:version="1.2.1 (9c6d41e, 2022-07-14)"
   xmlns:inkscape="http://www.inkscape.org/namespaces/inkscape"
   xmlns:sodipodi="http://sodipodi.sourceforge.net/DTD/sodipodi-0.dtd"
   xmlns="http://www.w3.org/2000/svg"
   xmlns:svg="http://www.w3.org/2000/svg"><defs
   id="defs163" /><sodipodi:namedview
   id="namedview161"
   pagecolor="#ffffff"
   bordercolor="#000000"
   borderopacity="0.25"
   inkscape:showpageshadow="2"
   inkscape:pageopacity="0.0"
   inkscape:pagecheckerboard="0"
   inkscape:deskcolor="#d1d1d1"
   showgrid="false"
   inkscape:zoom="0.47814124"
   inkscape:cx="247.83472"
   inkscape:cy="246.789"
   inkscape:window-width="1309"
   inkscape:window-height="456"
   inkscape:window-x="0"
   inkscape:window-y="38"
   inkscape:window-maximized="0"
   inkscape:current-layer="Capa_1" />
<g
   id="g128"
   transform="matrix(0,-1,-1,0,493.57862,493.57862)">
	<path
   d="m 487.267,225.981 c 0,-17.365 -13.999,-31.518 -31.518,-31.518 H 194.501 L 305.35,83.615 c 12.24,-12.24 12.24,-32.207 0,-44.676 L 275.592,9.18 c -12.24,-12.24 -32.207,-12.24 -44.676,0 L 15.568,224.527 c -6.12,6.12 -9.256,14.153 -9.256,22.262 0,8.032 3.136,16.142 9.256,22.262 l 215.348,215.348 c 12.24,12.239 32.207,12.239 44.676,0 L 305.35,454.64 c 12.24,-12.24 12.24,-32.207 0,-44.676 L 194.501,299.498 h 261.094 c 17.366,0 31.519,-14.153 31.519,-31.519 z"
   id="path126" />
</g>
<g
   id="g130"
   transform="matrix(0,-1,-1,0,0,493.57824)">
</g>
<g
   id="g132"
   transform="matrix(0,-1,-1,0,0,493.57824)">
</g>
<g
   id="g134"
   transform="matrix(0,-1,-1,0,0,493.57824)">
</g>
<g
   id="g136"
   transform="matrix(0,-1,-1,0,0,493.57824)">
</g>
<g
   id="g138"
   transform="matrix(0,-1,-1,0,0,493.57824)">
</g>
<g
   id="g140"
   transform="matrix(0,-1,-1,0,0,493.57824)">
</g>
<g
   id="g142"
   transform="matrix(0,-1,-1,0,0,493.57824)">
</g>
<g
   id="g144"
   transform="matrix(0,-1,-1,0,0,493.57824)">
</g>
<g
   id="g146"
   transform="matrix(0,-1,-1,0,0,493.57824)">
</g>
<g
   id="g148"
   transform="matrix(0,-1,-1,0,0,493.57824)">
</g>
<g
   id="g150"
   transform="matrix(0,-1,-1,0,0,493.57824)">
</g>
<g
   id="g152"
   transform="matrix(0,-1,-1,0,0,493.57824)">
</g>
<g
   id="g154"
   transform="matrix(0,-1,-1,0,0,493.57824)">
</g>
<g
   id="g156"
   transform="matrix(0,-1,-1,0,0,493.57824)">
</g>
<g
   id="g158"
   transform="matrix(0,-1,-1,0,0,493.57824)">
</g>
</svg>
